name analog
datacolumns 19
datarows 35
range 0.5445 0.5615
endheader
time	ground_force_vx	ground_force_vy	ground_force_vz	ground_force_px	ground_force_py	ground_force_pz	l_ground_force_vx	l_ground_force_vy	l_ground_force_vz	l_ground_force_px	l_ground_force_py	l_ground_force_pz	ground_torque_x	ground_torque_y	ground_torque_z	l_ground_torque_x	l_ground_torque_y	l_ground_torque_z
0.5445	-0.0	-0.0	-0.0	-0.0	-0.0	-0.0	5.880605220794678	-0.4834358692169189	-503.7431335449219	-0.0	-0.0	-0.0	-0.0	-0.0	-0.0	147719.640625	26918.4140625	857.29248046875
0.545	-0.0	-0.0	-0.0	-0.0	-0.0	-0.0	6.757952690124512	-0.6023885607719421	-503.7237548828125	-0.0	-0.0	-0.0	-0.0	-0.0	-0.0	147870.140625	26675.859375	1348.203857421875
0.5455	-0.0	-0.0	-0.0	-0.0	-0.0	-0.0	7.900527477264404	-0.7013288140296936	-504.4419860839844	-0.0	-0.0	-0.0	-0.0	-0.0	-0.0	147906.984375	26348.97265625	1441.50439453125
0.546	-0.0	-0.0	-0.0	-0.0	-0.0	-0.0	8.495447158813477	-0.3946805000305176	-503.9294738769531	-0.0	-0.0	-0.0	-0.0	-0.0	-0.0	148106.984375	26278.978515625	1619.8438720703125
0.5465	-0.0	-0.0	-0.0	-0.0	-0.0	-0.0	9.293907165527344	-0.4886612892150879	-504.4425354003906	-0.0	-0.0	-0.0	-0.0	-0.0	-0.0	148198.203125	26323.177734375	1904.9842529296875
0.547	-0.0	-0.0	-0.0	-0.0	-0.0	-0.0	10.071695327758787	-0.4561695456504822	-504.3376159667969	-0.0	-0.0	-0.0	-0.0	-0.0	-0.0	148104.015625	26393.1875	2008.359619140625
0.5475	-0.0	-0.0	-0.0	-0.0	-0.0	-0.0	10.529643058776855	-0.3942863941192627	-503.1275024414063	-0.0	-0.0	-0.0	-0.0	-0.0	-0.0	147709.875	26395.158203125	2070.10107421875
0.548	-0.0	-0.0	-0.0	-0.0	-0.0	-0.0	10.304351806640623	-0.7474380731582642	-503.23431396484375	-0.0	-0.0	-0.0	-0.0	-0.0	-0.0	147505.625	26566.44921875	2202.277587890625
0.5485	-0.0	-0.0	-0.0	-0.0	-0.0	-0.0	10.617976188659668	-1.3723981380462646	-500.3342895507813	-0.0	-0.0	-0.0	-0.0	-0.0	-0.0	147076.15625	27025.9765625	2161.28369140625
0.549	-0.0	-0.0	-0.0	-0.0	-0.0	-0.0	10.399548530578612	-2.3643877506256104	-500.763671875	-0.0	-0.0	-0.0	-0.0	-0.0	-0.0	146669.359375	27313.69140625	2039.979736328125
0.5495	-0.0	-0.0	-0.0	-0.0	-0.0	-0.0	9.826578140258787	-3.2476723194122314	-497.9701843261719	-0.0	-0.0	-0.0	-0.0	-0.0	-0.0	145735.703125	27661.765625	1861.4091796875
0.55	-0.0	-0.0	-0.0	-0.0	-0.0	-0.0	8.810338973999023	-3.605806350708008	-496.0647888183594	-0.0	-0.0	-0.0	-0.0	-0.0	-0.0	145033.578125	27872.54296875	1479.1986083984375
0.5505	-0.0	-0.0	-0.0	-0.0	-0.0	-0.0	6.92741584777832	-4.488526344299316	-493.3826293945313	-0.0	-0.0	-0.0	-0.0	-0.0	-0.0	143982.40625	28319.931640625	1133.6868896484375
0.551	-0.0	-0.0	-0.0	-0.0	-0.0	-0.0	5.6051926612854	-5.6607584953308105	-491.4470520019531	-0.0	-0.0	-0.0	-0.0	-0.0	-0.0	143478.71875	28571.55078125	616.0192260742188
0.5515	-0.0	-0.0	-0.0	-0.0	-0.0	-0.0	3.96342134475708	-6.387599945068359	-490.0510559082031	-0.0	-0.0	-0.0	-0.0	-0.0	-0.0	142864.25	29313.40234375	162.9248809814453
0.552	-0.0	-0.0	-0.0	-0.0	-0.0	-0.0	2.4151723384857178	-6.9177327156066895	-489.004150390625	-0.0	-0.0	-0.0	-0.0	-0.0	-0.0	142307.359375	29764.1796875	-207.6876983642578
0.5525	-0.0	-0.0	-0.0	-0.0	-0.0	-0.0	1.8828489780426023	-6.99724817276001	-488.3063049316406	-0.0	-0.0	-0.0	-0.0	-0.0	-0.0	142121.40625	30193.98828125	-363.0685729980469
0.553	-0.0	-0.0	-0.0	-0.0	-0.0	-0.0	1.271125555038452	-7.624711513519287	-489.7035217285156	-0.0	-0.0	-0.0	-0.0	-0.0	-0.0	142090.90625	30702.9453125	-488.9295043945313
0.5535	-0.0	-0.0	-0.0	-0.0	-0.0	-0.0	0.4729024469852447	-8.400079727172852	-490.55804443359375	-0.0	-0.0	-0.0	-0.0	-0.0	-0.0	142794.4375	30904.61328125	-651.208984375
0.554	-0.0	-0.0	-0.0	-0.0	-0.0	-0.0	0.3252693712711334	-8.64571762084961	-493.3512573242188	-0.0	-0.0	-0.0	-0.0	-0.0	-0.0	143389.3125	31330.072265625	-760.0465087890625
0.5545	-0.0	-0.0	-0.0	-0.0	-0.0	-0.0	0.1970638036727905	-9.254220962524414	-495.44866943359375	-0.0	-0.0	-0.0	-0.0	-0.0	-0.0	144010.953125	31646.55859375	-809.7076416015625
0.555	-0.0	-0.0	-0.0	-0.0	-0.0	-0.0	-0.1970053315162658	-9.695887565612791	-498.2393798828125	-0.0	-0.0	-0.0	-0.0	-0.0	-0.0	144558.375	32065.052734375	-942.2244262695312
0.5555	-0.0	-0.0	-0.0	-0.0	-0.0	-0.0	-0.2661323547363281	-10.452016830444336	-498.7420654296875	-0.0	-0.0	-0.0	-0.0	-0.0	-0.0	145136.578125	32111.255859375	-928.9521484375
0.556	-0.0	-0.0	-0.0	-0.0	-0.0	-0.0	-0.0388776026666164	-10.598602294921877	-500.7265625	-0.0	-0.0	-0.0	-0.0	-0.0	-0.0	145453.71875	32812.26171875	-875.9771728515625
0.5565	-0.0	-0.0	-0.0	-0.0	-0.0	-0.0	-0.1774215698242187	-10.998628616333008	-501.73089599609375	-0.0	-0.0	-0.0	-0.0	-0.0	-0.0	145981.9375	33017.6953125	-833.512939453125
0.557	-0.0	-0.0	-0.0	-0.0	-0.0	-0.0	-0.030803769826889	-11.696897506713867	-502.6571044921875	-0.0	-0.0	-0.0	-0.0	-0.0	-0.0	146336.765625	33263.94140625	-797.4674682617188
0.5575	-0.0	-0.0	-0.0	-0.0	-0.0	-0.0	0.3548431396484375	-11.973448753356934	-503.1275024414063	-0.0	-0.0	-0.0	-0.0	-0.0	-0.0	146446.9375	33821.41796875	-826.9501953125
0.558	-0.0	-0.0	-0.0	-0.0	-0.0	-0.0	0.335681676864624	-12.250571250915527	-504.4486999511719	-0.0	-0.0	-0.0	-0.0	-0.0	-0.0	146877.0625	34119.26953125	-810.2094116210938
0.5585	-0.0	-0.0	-0.0	-0.0	-0.0	-0.0	0.6332897543907166	-12.049779891967772	-504.4489440917969	-0.0	-0.0	-0.0	-0.0	-0.0	-0.0	146739.140625	34517.8828125	-704.0428466796875
0.559	-0.0	-0.0	-0.0	-0.0	-0.0	-0.0	0.6209754943847656	-12.00528335571289	-504.59906005859375	-0.0	-0.0	-0.0	-0.0	-0.0	-0.0	146760.234375	34845.63671875	-678.5134887695312
0.5595	-0.0	-0.0	-0.0	-0.0	-0.0	-0.0	1.5399019718170166	-11.765665054321287	-504.5241088867188	-0.0	-0.0	-0.0	-0.0	-0.0	-0.0	146643.25	35174.80859375	-417.18988037109375
0.56	-0.0	-0.0	-0.0	-0.0	-0.0	-0.0	1.2041585445404053	-11.077836990356444	-506.3959045410156	-0.0	-0.0	-0.0	-0.0	-0.0	-0.0	147040.53125	35576.31640625	-497.9978332519531
0.5605	-0.0	-0.0	-0.0	-0.0	-0.0	-0.0	1.13440203666687	-11.406797409057615	-505.3180847167969	-0.0	-0.0	-0.0	-0.0	-0.0	-0.0	147454.140625	36120.40234375	-311.3295288085937
0.561	-0.0	-0.0	-0.0	-0.0	-0.0	-0.0	1.7742156982421875	-11.300104141235352	-507.31732177734375	-0.0	-0.0	-0.0	-0.0	-0.0	-0.0	147901.734375	36401.12890625	-145.35862731933594
0.5615	-0.0	-0.0	-0.0	-0.0	-0.0	-0.0	2.231707811355591	-10.691658020019531	-510.3312377929688	-0.0	-0.0	-0.0	-0.0	-0.0	-0.0	148526.765625	36959.703125	-119.78465270996094
